<svg width="15" height="16" viewBox="0 0 15 16" fill="none" xmlns="http://www.w3.org/2000/svg">
<path d="M9.03452 0.681502L5.92352 0.674002H5.92202C2.64152 0.674002 0.0720215 3.24425 0.0720215 6.5255C0.0720215 9.599 2.46152 11.93 5.67077 12.053V14.924C5.67077 15.005 5.70377 15.1385 5.76077 15.2263C5.86727 15.395 6.04877 15.4865 6.23477 15.4865C6.33827 15.4865 6.44252 15.458 6.53627 15.398C6.73427 15.272 11.391 12.293 12.6023 11.2685C14.0288 10.061 14.8823 8.291 14.8845 6.5345V6.52175C14.88 3.2465 12.312 0.681502 9.03452 0.680752V0.681502ZM11.8748 10.4105C11.0243 11.1305 8.22827 12.9643 6.79577 13.8928V11.5025C6.79577 11.192 6.54452 10.94 6.23327 10.94H5.93627C3.19127 10.94 1.19777 9.083 1.19777 6.5255C1.19777 3.875 3.27377 1.799 5.92277 1.799L9.03302 1.8065H9.03452C11.6835 1.8065 13.7595 3.881 13.761 6.5285C13.7588 7.961 13.0545 9.4115 11.8755 10.4105H11.8748Z" fill="#828282"/>
</svg>
